<svg xmlns="http://www.w3.org/2000/svg" version="1.1" xmlns:xlink="http://www.w3.org/1999/xlink" xmlns:svgjs="http://svgjs.dev/svgjs" width="1500" height="1500" viewBox="0 0 1500 1500"><rect width="1500" height="1500" fill="#ffffff"></rect><g transform="matrix(0.6666666666666666,0,0,0.6666666666666666,250.63766854872296,68.55222672064775)"><svg viewBox="0 0 181 247" data-background-color="#ffffff" preserveAspectRatio="xMidYMid meet" height="2046" width="1500" xmlns="http://www.w3.org/2000/svg" xmlns:xlink="http://www.w3.org/1999/xlink"><g id="tight-bounds" transform="matrix(1,0,0,1,-0.11541800731885132,-0.09999999999999432)"><svg viewBox="0 0 181.23083601463773 247.2" height="247.2" width="181.23083601463773"><g><svg viewBox="0 0 395.52 539.4917672404439" height="247.2" width="181.23083601463773"><g transform="matrix(1,0,0,1,0,325.69649883699134)"><svg viewBox="0 0 395.52 213.79526840345252" height="213.79526840345252" width="395.52"><g id="textblocktransform"><svg viewBox="0 0 395.52 213.79526840345252" height="213.79526840345252" width="395.52" id="textblock"><g><svg viewBox="0 0 395.52 126.80049321824907" height="126.80049321824907" width="395.52"><g transform="matrix(1,0,0,1,0,0)"><svg width="395.52" viewBox="2.25 -38.5 123.09 39" height="126.80049321824907" data-palette-color="#1f55b3"><g class="wordmark-text-0" data-fill-palette-color="primary" id="text-0"><path d="M37.7 0.5L34.7 0.5 10.95-30.8 10.75-30.8 10.75-9.45Q10.75-6.95 10.93-5.5 11.1-4.05 11.63-3.25 12.15-2.45 13.13-2.2 14.1-1.95 15.7-1.9L15.7-1.9 15.7 0 2.25 0 2.25-1.9Q4-1.95 5.08-2.23 6.15-2.5 6.75-3.25 7.35-4 7.55-5.38 7.75-6.75 7.75-9.1L7.75-9.1 7.75-29.4Q7.75-31.5 7.58-32.88 7.4-34.25 6.88-35.05 6.35-35.85 5.35-36.18 4.35-36.5 2.75-36.6L2.75-36.6 2.75-38.5 12.65-38.5 34.5-9.35 34.7-9.35 34.7-29.05Q34.7-31.5 34.52-32.98 34.35-34.45 33.83-35.25 33.3-36.05 32.33-36.3 31.35-36.55 29.75-36.6L29.75-36.6 29.75-38.5 43.2-38.5 43.2-36.6Q41.45-36.55 40.38-36.27 39.3-36 38.7-35.25 38.1-34.5 37.9-33.1 37.7-31.7 37.7-29.4L37.7-29.4 37.7 0.5ZM69.65-6.05L71.2-4.65Q66.95 0.5 60.65 0.5L60.65 0.5Q57.7 0.5 55.3-0.48 52.9-1.45 51.17-3.23 49.45-5 48.5-7.48 47.55-9.95 47.55-12.95L47.55-12.95Q47.55-16 48.55-18.6 49.55-21.2 51.37-23.05 53.2-24.9 55.72-25.95 58.25-27 61.25-27L61.25-27Q66.1-27 68.75-24.38 71.4-21.75 71.4-16.85L71.4-16.85Q71.4-16.15 71.12-16 70.85-15.85 69.85-15.85L69.85-15.85 53.4-15.85Q53.3-15.45 53.25-14.88 53.2-14.3 53.2-13.6L53.2-13.6Q53.2-11 53.82-8.88 54.45-6.75 55.62-5.25 56.8-3.75 58.42-2.93 60.05-2.1 62.05-2.1L62.05-2.1Q64.15-2.1 65.95-3.03 67.75-3.95 69.65-6.05L69.65-6.05ZM53.75-18.15L62.95-18.15Q63.95-18.15 64.55-18.2 65.15-18.25 65.45-18.4 65.75-18.55 65.85-18.82 65.95-19.1 65.95-19.55L65.95-19.55Q65.95-21.85 64.47-23.23 63-24.6 60.45-24.6L60.45-24.6Q55.05-24.6 53.75-18.15L53.75-18.15ZM84.84-9.65L84.84-7.95Q84.84-5.9 84.95-4.7 85.05-3.5 85.47-2.88 85.9-2.25 86.7-2.05 87.5-1.85 88.95-1.75L88.95-1.75 88.95 0 75.65 0 75.65-1.75Q77.09-1.8 77.95-2.02 78.8-2.25 79.25-2.85 79.7-3.45 79.82-4.58 79.95-5.7 79.95-7.6L79.95-7.6 79.95-13.45Q79.95-16.85 79.87-18.75 79.8-20.65 79.37-21.55 78.95-22.45 78.05-22.63 77.15-22.8 75.55-22.8L75.55-22.8 75.55-24.55 84.3-26.45 85-20.25 85.2-20.25Q85.84-21.75 86.82-23 87.8-24.25 88.95-25.13 90.09-26 91.34-26.5 92.59-27 93.9-27L93.9-27Q95.5-27 96.42-26.23 97.34-25.45 97.34-24.15L97.34-24.15Q97.34-22.95 96.59-22.28 95.84-21.6 94.45-21.6L94.45-21.6Q93.65-21.6 93.09-21.8 92.55-22 92.12-22.23 91.7-22.45 91.32-22.65 90.95-22.85 90.5-22.85L90.5-22.85Q89.15-22.85 87.8-21.13 86.45-19.4 85.7-16.75L85.7-16.75Q85.3-15.3 85.07-13.48 84.84-11.65 84.84-9.65L84.84-9.65ZM115.04-10.85L115.04-14.8Q112.19-13.7 110.22-12.65 108.24-11.6 107.04-10.55 105.84-9.5 105.32-8.45 104.79-7.4 104.79-6.3L104.79-6.3Q104.79-4.65 105.89-3.6 106.99-2.55 108.79-2.55L108.79-2.55Q110.09-2.55 111.22-3.2 112.34-3.85 113.19-4.98 114.04-6.1 114.54-7.63 115.04-9.15 115.04-10.85L115.04-10.85ZM107.84-13.8L115.04-16.95 115.04-19Q115.04-25.1 109.84-25.1L109.84-25.1Q108.99-25.1 108.39-24.95 107.79-24.8 107.39-24.45 106.99-24.1 106.67-23.45 106.34-22.8 106.04-21.85L106.04-21.85Q105.49-20.4 104.97-19.93 104.44-19.45 103.44-19.45L103.44-19.45Q100.94-19.45 100.94-21.95L100.94-21.95Q100.94-24.35 103.49-25.68 106.04-27 110.74-27L110.74-27Q115.74-27 117.84-25.23 119.94-23.45 119.94-19.2L119.94-19.2 119.94-8Q119.94-2.3 122.19-2.3L122.19-2.3Q122.89-2.3 123.54-2.48 124.19-2.65 124.64-3.4L124.64-3.4 125.34-2.2Q124.74-1.05 123.14-0.28 121.54 0.5 119.79 0.5L119.79 0.5Q117.59 0.5 116.52-0.9 115.44-2.3 115.44-4.85L115.44-4.85 115.19-4.85Q113.89-2.4 111.59-0.98 109.29 0.45 106.49 0.45L106.49 0.45Q103.34 0.45 101.54-1.15 99.74-2.75 99.74-5.45L99.74-5.45Q99.74-6.65 100.17-7.75 100.59-8.85 101.54-9.85 102.49-10.85 104.04-11.83 105.59-12.8 107.84-13.8L107.84-13.8Z" fill="#000000" data-fill-palette-color="primary"></path></g></svg></g></svg></g><g transform="matrix(1,0,0,1,119.30219482120837,156.73504645524045)"><svg viewBox="0 0 156.91561035758323 57.06022194821208" height="57.06022194821208" width="156.91561035758323"><g transform="matrix(1,0,0,1,0,0)"><svg width="156.91561035758323" viewBox="2 -34.5 96.24 35" height="57.06022194821208" data-palette-color="#ff585f"><path d="M25.95-31.85Q29-29.7 30.7-25.95 32.4-22.2 32.4-17.45L32.4-17.45Q32.4-12.7 30.7-8.8 29-4.9 25.95-2.7L25.95-2.7Q24-1.3 21.48-0.65 18.95 0 15.3 0L15.3 0 2 0 2-0.4 6.1-0.8 6.1-33.7 2-34.1 2-34.5 15.3-34.5Q22.1-34.5 25.95-31.85L25.95-31.85ZM24.15-3.55Q25.75-5.6 26.68-9.38 27.6-13.15 27.6-17.7L27.6-17.7Q27.6-22.15 26.73-25.55 25.85-28.95 24.15-30.95L24.15-30.95Q22.75-32.6 20.7-33.25 18.65-33.9 14.85-33.9L14.85-33.9 9.95-33.9 9.95-0.6 14.85-0.6Q18.85-0.6 20.85-1.25 22.85-1.9 24.15-3.55L24.15-3.55ZM46.55-21.7Q49.45-21.7 51.7-20.3 53.95-18.9 55.2-16.38 56.45-13.85 56.45-10.6L56.45-10.6Q56.45-7.35 55.2-4.83 53.95-2.3 51.7-0.9 49.45 0.5 46.55 0.5L46.55 0.5Q43.65 0.5 41.4-0.9 39.15-2.3 37.9-4.83 36.65-7.35 36.65-10.6L36.65-10.6Q36.65-13.85 37.9-16.38 39.15-18.9 41.4-20.3 43.65-21.7 46.55-21.7L46.55-21.7ZM40.35-10.6Q40.35-5.6 42-2.8 43.65 0 46.55 0L46.55 0Q49.45 0 51.1-2.8 52.75-5.6 52.75-10.6L52.75-10.6Q52.75-15.6 51.1-18.4 49.45-21.2 46.55-21.2L46.55-21.2Q43.65-21.2 42-18.4 40.35-15.6 40.35-10.6L40.35-10.6ZM72.44-34.1L72.44-34.5 84.49-34.5 84.49-34.1 80.39-33.7 80.39-0.8 84.49-0.4 84.49 0 72.44 0 72.44-0.4 76.54-0.8 76.54-33.7 72.44-34.1ZM91.84-26L86.34-20.7 86.44-20.45 88.79-20.45 88.79-4.45Q88.79-2.9 89.14-1.95 89.49-1 90.34-0.4L90.34-0.4Q91.59 0.5 93.19 0.5L93.19 0.5Q94.74 0.5 96.12-0.4 97.49-1.3 98.24-2.85L98.24-2.85 98.04-3Q97.14-2.1 96.39-1.7 95.64-1.3 94.84-1.3L94.84-1.3Q93.19-1.3 92.59-2.5L92.59-2.5Q92.04-3.35 92.04-5.1L92.04-5.1 92.04-20.4 97.44-20.4 97.74-21.2 92.04-21.2 92.04-25.95 91.84-26Z" opacity="1" transform="matrix(1,0,0,1,0,0)" fill="#000000" class="slogan-text-1" data-fill-palette-color="secondary" id="text-1"></path></svg></g></svg></g></svg></g></svg></g><g transform="matrix(1,0,0,1,49.879027199999996,0)"><svg viewBox="0 0 295.7619456 295.7619456" height="295.7619456" width="295.7619456"><g><svg></svg></g><g id="icon-0"><svg viewBox="0 0 295.7619456 295.7619456" height="295.7619456" width="295.7619456"><g><path transform="scale(2.95762,2.95762)" d="M30 100c-16.569 0-30-13.431-30-30v-40c0-16.569 13.431-30 30-30h40c16.569 0 30 13.431 30 30v40c0 16.569-13.431 30-30 30z" fill="#000000" fill-rule="nonzero" stroke="none" stroke-width="1" stroke-linecap="butt" stroke-linejoin="miter" stroke-miterlimit="10" stroke-dasharray="" stroke-dashoffset="0" font-family="none" font-weight="none" font-size="none" text-anchor="none" style="mix-blend-mode: normal" data-fill-palette-color="accent"></path></g><g transform="matrix(1,0,0,1,59.152389119999995,76.51948118130574)"><svg viewBox="0 0 177.45716736 142.72298323738852" height="142.72298323738852" width="177.45716736"><g><svg xmlns="http://www.w3.org/2000/svg" xmlns:xlink="http://www.w3.org/1999/xlink" version="1.1" x="0" y="0" viewBox="0 9.786 100.00034525290006 80.42699999999999" enable-background="new 0 0 100 100" xml:space="preserve" width="177.45716736" height="142.72298323738852" class="icon-cg-0" data-fill-palette-color="quaternary" id="cg-0"><path d="M49.942 52.994c13.552-0.488 27.103-0.977 40.653-1.465-2.527-4.177-3.159-7.831-7.989-8.461-7.229-0.94-14.458-1.883-21.688-2.826-14.023-1.827-28.05-3.654-42.075-5.48C20.101 36.792 39.724 53.361 49.942 52.994z" fill="#ffffff" data-fill-palette-color="quaternary"></path><path d="M0 9.786c4.391 7.257 26.615 23.072 32.953 23.886 17.33 2.231 34.657 4.46 51.986 6.688-3.393-5.607-4.18-9.35-10.312-10.959-8.904-2.341-17.812-4.683-26.717-7.023C31.94 18.182 15.97 13.984 0 9.786z" fill="#ffffff" data-fill-palette-color="quaternary"></path><path d="M63.108 66.207c10.413-2.219 20.826-4.439 31.241-6.66-2.028-3.346-2.034-5.359-5.827-5.189-6.158 0.273-12.314 0.549-18.471 0.822-11.343 0.506-22.686 1.014-34.028 1.518C37.298 58.064 54.94 67.947 63.108 66.207z" fill="#ffffff" data-fill-palette-color="quaternary"></path><path d="M87.682 90.213c5.725-3.719 7.262-7.721 10.519-13.807 3.651-6.824 1.257-7.844-2.821-14.596-0.417-0.688-5.842 0.232-6.453 0.904-0.745 0.818-0.248 5.455-0.294 6.496C88.315 76.211 87.998 83.213 87.682 90.213z" fill="#ffffff" data-fill-palette-color="quaternary"></path><path d="M86.35 63.447c-3.795 0.809-8.604 0.191-9.572 4.229-1.373 5.736-2.746 11.475-4.12 17.211C81.904 82.678 86.028 71.582 86.35 63.447z" fill="#ffffff" data-fill-palette-color="quaternary"></path><path d="M74.666 66.121c-9.148 1.953-8.956 4.611-12.879 13.18C68.007 78.711 73.811 71.941 74.666 66.121z" fill="#ffffff" data-fill-palette-color="quaternary"></path></svg></g></svg></g></svg></g></svg></g><g></g></svg></g><defs></defs></svg><rect width="181.23083601463773" height="247.2" fill="none" stroke="none" visibility="hidden"></rect></g></svg></g></svg>